<?xml version="1.0" standalone="no"?>
<!DOCTYPE svg PUBLIC "-//W3C//DTD SVG 20010904//EN"
 "http://www.w3.org/TR/2001/REC-SVG-20010904/DTD/svg10.dtd">
<svg version="1.0" xmlns="http://www.w3.org/2000/svg"
 width="148.000000pt" height="149.000000pt" viewBox="0 0 148.000000 149.000000"
 preserveAspectRatio="xMidYMid meet">
<metadata>
Created by potrace 1.10, written by Peter Selinger 2001-2011
</metadata>
<g transform="translate(0.000000,149.000000) scale(0.100000,-0.100000)"
fill="#000000" stroke="none">
<path d="M625 1441 c-38 -9 -68 -26 -85 -46 -11 -13 -8 -17 19 -26 38 -13 39
-4 -41 -229 -33 -91 -71 -199 -85 -240 -29 -88 -48 -127 -74 -156 -11 -11 -17
-28 -14 -36 19 -49 183 -51 201 -3 3 8 -5 28 -20 46 -30 36 -33 68 -8 99 16
20 21 21 63 10 46 -12 46 -12 52 -62 13 -109 82 -161 280 -214 146 -39 187
-64 187 -117 0 -63 -49 -97 -137 -97 -92 1 -169 57 -227 168 -21 37 -38 58
-52 60 -36 5 -49 -24 -49 -114 0 -74 3 -85 25 -109 63 -68 206 -112 328 -101
165 14 255 96 256 232 0 100 -61 180 -164 215 -19 7 -45 19 -58 27 -24 16 -82
119 -82 147 0 42 112 -11 163 -78 15 -20 37 -42 49 -48 19 -10 25 -8 49 19 16
17 31 47 35 67 5 31 2 41 -21 65 -45 47 -135 81 -233 88 -79 6 -88 9 -99 32
-7 14 -13 37 -13 51 0 14 -18 76 -40 138 -22 61 -40 118 -40 126 0 41 186 -14
298 -88 190 -127 297 -322 296 -542 -1 -52 -8 -117 -18 -155 -22 -82 -88 -207
-144 -272 -27 -33 -40 -54 -34 -60 15 -15 33 -1 98 72 127 142 180 354 140
563 -15 75 -84 229 -133 297 -122 166 -360 282 -570 279 -37 -1 -81 -4 -98 -8z
m250 -36 c39 -8 112 -35 163 -61 75 -37 110 -62 176 -127 68 -68 90 -98 128
-177 100 -205 103 -406 9 -603 -31 -65 -133 -197 -152 -197 -7 0 7 20 30 45
117 127 173 267 174 435 1 58 -5 130 -12 160 -21 87 -94 229 -151 293 -175
195 -421 271 -680 211 -21 -5 -22 -4 -7 6 47 30 212 38 322 15z m-89 -165 c25
-74 48 -148 49 -165 3 -29 83 -255 94 -265 3 -3 14 -22 24 -44 10 -22 27 -41
40 -44 22 -6 22 -6 -3 -13 l-25 -7 27 -1 c43 -2 130 -38 162 -67 74 -70 74
-186 -1 -259 -95 -92 -313 -85 -454 15 -28 21 -29 24 -29 106 0 49 4 84 10 84
6 0 10 -8 10 -17 1 -58 84 -169 154 -206 57 -30 174 -31 231 -1 77 39 95 127
38 186 -40 42 -67 54 -187 82 -129 31 -162 45 -209 86 -45 39 -56 85 -33 131
20 40 20 39 -7 39 -13 0 -44 7 -70 16 -73 25 -98 17 -126 -39 -31 -64 -24
-112 22 -132 30 -14 27 -14 -58 -14 -85 0 -88 1 -58 14 22 9 34 23 41 47 7 25
106 311 206 593 2 6 26 10 54 10 l51 0 47 -135z m284 -287 c67 -18 143 -61
136 -77 -3 -6 -10 -28 -17 -48 l-12 -38 -56 61 c-62 69 -115 98 -178 99 -33 0
-43 4 -43 16 0 14 8 15 58 10 31 -4 82 -14 112 -23z"/>
<path d="M640 1328 c0 -11 -98 -293 -126 -362 -7 -19 -7 -19 16 -3 30 21 84
22 140 2 48 -17 79 -19 99 -6 12 8 3 40 -47 183 -34 96 -62 179 -62 186 0 7
-4 12 -10 12 -5 0 -10 -6 -10 -12z m56 -232 c15 -47 25 -88 22 -91 -7 -8 -118
14 -131 25 -5 4 3 39 16 76 42 116 39 109 52 91 7 -9 25 -55 41 -101z"/>
<path d="M778 893 c-25 -29 -30 -60 -14 -91 14 -27 80 -72 91 -61 6 7 -47 169
-56 169 -3 0 -13 -8 -21 -17z"/>
<path d="M299 1275 c-40 -22 -126 -130 -165 -208 -52 -102 -74 -200 -74 -327
0 -126 13 -175 78 -304 65 -128 160 -222 298 -293 136 -71 200 -86 354 -87
109 -1 130 2 165 20 39 22 82 60 74 68 -2 2 -36 -9 -75 -25 -220 -88 -495 -15
-676 179 -65 71 -151 231 -173 323 -19 82 -19 226 1 309 22 96 78 200 146 275
33 36 65 65 70 65 6 0 -14 -26 -44 -57 -99 -104 -149 -205 -167 -337 -18 -129
14 -266 85 -363 19 -27 37 -55 40 -63 12 -33 77 -53 212 -66 153 -15 172 -23
291 -128 90 -80 143 -107 211 -108 57 0 90 17 49 26 -155 32 -188 46 -258 110
-48 43 -111 87 -146 100 -11 4 -73 13 -138 21 -137 16 -163 29 -219 109 -153
220 -133 490 52 686 34 35 56 66 50 68 -5 2 -8 8 -4 13 8 13 -7 11 -37 -6z"/>
<path d="M275 380 c11 -12 20 -25 20 -29 0 -3 3 -5 8 -3 4 1 7 -4 7 -10 0 -9
4 -8 11 2 8 11 9 8 5 -15 -6 -28 -5 -29 6 -8 16 28 26 29 45 6 8 -10 12 -12 8
-5 -4 7 0 12 10 12 9 0 14 -4 11 -9 -4 -5 3 -7 14 -4 31 8 24 23 -11 23 -16 0
-28 4 -25 9 4 5 -3 7 -14 4 -11 -3 -27 0 -35 7 -8 7 -15 9 -15 4 0 -5 -4 -4
-8 1 -4 6 -18 16 -32 24 l-25 14 20 -23z"/>
<path d="M480 355 c-23 -9 -28 -14 -15 -14 11 0 34 6 50 14 39 17 11 18 -35 0z"/>
<path d="M525 309 c-70 -37 -102 -48 -90 -29 3 6 -1 7 -9 4 -9 -3 -16 -12 -16
-20 0 -8 6 -11 17 -7 11 5 14 3 8 -6 -6 -10 -2 -11 15 -6 15 5 20 4 16 -4 -4
-6 27 10 69 34 77 46 90 52 81 36 -3 -5 1 -11 9 -15 8 -3 17 -1 20 5 7 11 25
2 25 -12 0 -6 -4 -8 -9 -4 -5 3 -12 1 -16 -5 -4 -6 -11 -5 -21 4 -12 13 -20
11 -60 -11 -25 -14 -43 -27 -41 -30 3 -2 20 5 39 17 41 24 77 18 56 -9 -7 -9
-1 -6 13 7 l26 22 64 -48 c62 -48 120 -82 136 -82 4 0 -17 14 -47 32 -30 17
-78 55 -106 84 -39 41 -54 50 -62 42 -12 -12 -17 0 -13 26 1 4 -13 -1 -31 -12
-95 -57 -127 -72 -132 -64 -3 6 20 22 51 37 58 27 105 56 88 54 -6 -1 -41 -19
-80 -40z"/>
<path d="M350 300 c-13 -8 -12 -10 3 -10 10 0 16 -4 13 -9 -4 -5 3 -7 14 -4
11 3 23 10 27 16 4 6 0 8 -9 4 -9 -3 -20 -1 -24 3 -5 5 -15 5 -24 0z"/>
<path d="M543 231 c-33 -21 -64 -44 -68 -51 -6 -10 104 59 130 82 22 19 -6 5
-62 -31z"/>
<path d="M640 245 c-7 -9 -19 -14 -27 -11 -8 3 -37 -10 -66 -29 -28 -19 -48
-35 -44 -35 4 0 25 12 47 26 33 22 44 25 68 16 23 -8 31 -7 40 7 6 9 11 12 11
6 1 -16 -11 -29 -63 -68 -53 -40 -55 -51 -3 -15 42 29 77 66 77 81 0 7 4 6 11
-3 7 -10 9 -11 7 -2 -2 8 -7 12 -10 10 -4 -2 -13 5 -21 15 -12 17 -14 18 -27
2z"/>
<path d="M558 185 c-20 -13 -40 -30 -44 -37 -6 -9 -3 -9 9 1 10 8 21 11 24 7
4 -4 1 -11 -7 -16 -8 -6 -11 -10 -7 -10 10 0 97 59 97 65 0 2 -7 1 -17 -2 -11
-4 -14 -3 -9 5 11 18 -5 13 -46 -13z"/>
<path d="M766 162 c-11 -10 -6 -24 7 -19 6 2 23 0 36 -5 20 -7 22 -6 12 6 -13
16 -47 27 -55 18z"/>
<path d="M652 119 c-13 -20 -13 -21 8 -6 19 13 25 13 60 -4 21 -11 45 -19 52
-18 7 0 4 4 -7 9 -14 6 -15 9 -5 10 12 1 -70 28 -90 30 -3 0 -11 -10 -18 -21z"/>
</g>
</svg>
